<svg 
 xmlns="http://www.w3.org/2000/svg"
 xmlns:xlink="http://www.w3.org/1999/xlink"
 width="23px" height="23px">
<path fill-rule="evenodd"  stroke="rgb(98, 98, 98)" stroke-width="2px" stroke-linecap="butt" stroke-linejoin="miter" fill="none"
 d="M3.000,1.000 L19.000,1.000 C20.105,1.000 21.000,1.895 21.000,3.000 L21.000,18.954 C21.000,20.059 20.105,20.954 19.000,20.954 L3.000,20.954 C1.895,20.954 1.000,20.059 1.000,18.954 L1.000,3.000 C1.000,1.895 1.895,1.000 3.000,1.000 Z"/>
<path fill-rule="evenodd"  stroke="rgb(98, 98, 98)" stroke-width="2px" stroke-linecap="butt" stroke-linejoin="miter" fill="none"
 d="M14.985,12.008 C14.432,12.008 13.985,11.561 13.985,11.008 C13.985,10.456 14.432,10.008 14.985,10.008 C15.537,10.008 15.985,10.456 15.985,11.008 C15.985,11.561 15.537,12.008 14.985,12.008 ZM14.985,8.008 C14.432,8.008 13.985,7.561 13.985,7.008 C13.985,6.456 14.432,6.008 14.985,6.008 C15.537,6.008 15.985,6.456 15.985,7.008 C15.985,7.561 15.537,8.008 14.985,8.008 ZM10.985,16.008 C10.433,16.008 9.985,15.561 9.985,15.008 C9.985,14.456 10.433,14.008 10.985,14.008 C11.537,14.008 11.985,14.456 11.985,15.008 C11.985,15.561 11.537,16.008 10.985,16.008 ZM10.985,12.008 C10.433,12.008 9.985,11.561 9.985,11.008 C9.985,10.456 10.433,10.008 10.985,10.008 C11.537,10.008 11.985,10.456 11.985,11.008 C11.985,11.561 11.537,12.008 10.985,12.008 ZM10.985,8.008 C10.433,8.008 9.985,7.561 9.985,7.008 C9.985,6.456 10.433,6.008 10.985,6.008 C11.537,6.008 11.985,6.456 11.985,7.008 C11.985,7.561 11.537,8.008 10.985,8.008 ZM6.985,16.008 C6.433,16.008 5.985,15.561 5.985,15.008 C5.985,14.456 6.433,14.008 6.985,14.008 C7.537,14.008 7.985,14.456 7.985,15.008 C7.985,15.561 7.537,16.008 6.985,16.008 ZM6.985,12.008 C6.433,12.008 5.985,11.561 5.985,11.008 C5.985,10.456 6.433,10.008 6.985,10.008 C7.537,10.008 7.985,10.456 7.985,11.008 C7.985,11.561 7.537,12.008 6.985,12.008 ZM6.985,8.008 C6.433,8.008 5.985,7.561 5.985,7.008 C5.985,6.456 6.433,6.008 6.985,6.008 C7.537,6.008 7.985,6.456 7.985,7.008 C7.985,7.561 7.537,8.008 6.985,8.008 ZM14.985,14.008 C15.537,14.008 15.985,14.456 15.985,15.008 C15.985,15.561 15.537,16.008 14.985,16.008 C14.432,16.008 13.985,15.561 13.985,15.008 C13.985,14.456 14.432,14.008 14.985,14.008 Z"/>
</svg>
