<svg 
 xmlns="http://www.w3.org/2000/svg"
 xmlns:xlink="http://www.w3.org/1999/xlink"
 width="23px" height="23px">
<path fill-rule="evenodd"  stroke="rgb(98, 98, 98)" stroke-width="2px" stroke-linecap="butt" stroke-linejoin="miter" fill="none"
 d="M3.000,1.000 L19.000,1.000 C20.105,1.000 21.000,1.895 21.000,3.000 L21.000,18.954 C21.000,20.059 20.105,20.954 19.000,20.954 L3.000,20.954 C1.895,20.954 1.000,20.059 1.000,18.954 L1.000,3.000 C1.000,1.895 1.895,1.000 3.000,1.000 Z"/>
<path fill-rule="evenodd"  stroke="rgb(98, 98, 98)" stroke-width="2px" stroke-linecap="butt" stroke-linejoin="miter" fill="none"
 d="M16.012,7.996 L10.012,7.996 C9.459,7.996 9.012,7.548 9.012,6.996 C9.012,6.443 9.459,5.996 10.012,5.996 L16.012,5.996 C16.564,5.996 17.012,6.443 17.012,6.996 C17.012,7.548 16.564,7.996 16.012,7.996 ZM10.009,9.996 L16.009,9.996 C16.562,9.996 17.009,10.443 17.009,10.996 C17.009,11.548 16.562,11.996 16.009,11.996 L10.009,11.996 C9.457,11.996 9.009,11.548 9.009,10.996 C9.009,10.443 9.457,9.996 10.009,9.996 ZM5.985,16.008 C5.433,16.008 4.985,15.561 4.985,15.008 C4.985,14.456 5.433,14.008 5.985,14.008 C6.537,14.008 6.985,14.456 6.985,15.008 C6.985,15.561 6.537,16.008 5.985,16.008 ZM5.985,12.008 C5.433,12.008 4.985,11.561 4.985,11.008 C4.985,10.456 5.433,10.008 5.985,10.008 C6.537,10.008 6.985,10.456 6.985,11.008 C6.985,11.561 6.537,12.008 5.985,12.008 ZM5.985,8.008 C5.433,8.008 4.985,7.561 4.985,7.008 C4.985,6.456 5.433,6.008 5.985,6.008 C6.537,6.008 6.985,6.456 6.985,7.008 C6.985,7.561 6.537,8.008 5.985,8.008 ZM10.009,13.996 L16.009,13.996 C16.562,13.996 17.009,14.443 17.009,14.996 C17.009,15.548 16.562,15.996 16.009,15.996 L10.009,15.996 C9.457,15.996 9.009,15.548 9.009,14.996 C9.009,14.443 9.457,13.996 10.009,13.996 Z"/>
</svg>
