<svg 
 xmlns="http://www.w3.org/2000/svg"
 xmlns:xlink="http://www.w3.org/1999/xlink"
 width="23px" height="23px">
<path fill-rule="evenodd"  stroke="rgb(98, 98, 98)" stroke-width="2px" stroke-linecap="butt" stroke-linejoin="miter" fill="none"
 d="M4.007,9.009 L4.007,5.009 C4.007,4.457 4.455,4.009 5.007,4.009 L17.007,4.009 C17.559,4.009 18.007,4.457 18.007,5.009 L18.007,9.009 "/>
<path fill-rule="evenodd"  stroke="rgb(98, 98, 98)" stroke-width="2px" stroke-linecap="butt" stroke-linejoin="miter" fill="none"
 d="M7.007,4.031 L7.007,2.009 C7.007,1.457 7.455,1.009 8.007,1.009 L14.007,1.009 C14.559,1.009 15.007,1.457 15.007,2.009 L15.007,4.031 "/>
<path fill-rule="evenodd"  stroke="rgb(98, 98, 98)" stroke-width="2px" stroke-linecap="butt" stroke-linejoin="miter" fill="none"
 d="M17.053,16.009 C17.606,16.009 19.007,15.561 19.007,15.009 C19.007,15.009 20.906,12.282 20.906,10.989 C20.906,9.680 11.606,7.000 11.000,7.000 C10.394,7.000 11.512,7.000 10.906,7.000 C10.300,7.000 1.000,9.680 1.000,10.989 C1.000,12.282 2.899,15.009 2.899,15.009 C2.899,15.561 4.426,16.009 4.978,16.009 L17.053,16.009 Z"/>
<path fill-rule="evenodd"  stroke="rgb(98, 98, 98)" stroke-width="2px" stroke-linecap="butt" stroke-linejoin="miter" fill="none"
 d="M1.000,18.280 C1.000,18.280 1.568,21.000 3.988,21.000 C6.408,21.000 7.032,19.693 7.032,19.693 C7.032,19.693 7.863,18.331 9.000,19.720 C9.831,20.736 10.475,21.000 12.022,21.000 C13.568,21.000 14.002,19.626 14.002,19.626 C14.002,19.626 14.765,18.167 16.014,19.720 C16.740,20.624 16.865,21.000 18.933,21.000 C21.000,21.000 21.000,18.178 21.000,18.178 "/>
</svg>
